<?xml version="1.0"?><svg width="219" height="384" xmlns="http://www.w3.org/2000/svg">
 <metadata id="metadata3398">image/svg+xml</metadata>
 <g>
  <path d="m59.711884,277.149658c0.44397,0.57251 0.897629,1.076965 1.350967,1.489136c0,-0.000061 1.972504,0.74115 1.228119,17.117126c0.000031,0.000061 0.254303,8.942993 3.976105,11.176086c3.721832,2.233093 -5.203827,5.455994 -3.715118,9.425964c1.488739,3.969971 5.20636,0.501038 3.469482,8.689087c0,0 -8.692108,1.97406 -0.752228,7.18457c0,0.000061 3.480804,2.235474 -2.226013,8.934753c0.000031,0 -0.497925,4.96936 3.223877,6.954285c0,0 -0.003418,8.426392 6.447723,11.651978c6.451172,3.225586 18.8573,15.8927 19.849792,20.110779c0.000031,0 15.38501,4.714294 34.986603,0c0,0 12.152496,-16.880066 28.032227,-29.782349c0,0 -6.686005,-9.426758 1.750122,-12.404236c0,0 4.711426,-4.71582 -1.2435,-5.956421c-5.954926,-1.240662 2.226013,-5.710876 2.226013,-5.710876c0,0 0.741089,-8.673706 -2.732635,-8.673706c-3.473694,0 -0.487976,-4.723328 2.241394,-5.219604c2.729309,-0.496216 -1.980774,-8.177429 -3.469513,-8.673706c0,-0.000061 -1.743561,-4.718384 3.715118,-5.710876c5.458679,-0.992493 -3.218079,-6.449646 -0.736877,-13.893311c0.71701,-2.151001 2.115112,-4.348572 3.715118,-6.708679l-101.336777,0z" id="path4572" stroke-miterlimit="4" stroke-width="4" stroke="#000000" fill-rule="evenodd" fill="#888a85"/>
  <path d="m100.594955,2.038952c-39.483673,2.539856 -74.694107,30.809875 -90.338531,66.397923c-13.246246,34.163879 -10.682861,74.396698 8.624435,105.785431c12.932587,26.710083 32.470642,52.870911 30.737991,84.007126c-1.757706,14.86731 12.170837,21.591675 24.80545,18.728088c28.609222,0 57.218445,0 85.827698,0c12.729401,-9.131897 7.219025,-26.536606 11.833832,-39.419235c5.749695,-24.559875 16.724823,-47.701904 31.398102,-68.122925c20.44754,-39.522461 17.148743,-90.343292 -9.982269,-125.908451c-18.706543,-28.371185 -51.544495,-42.34613 -92.906708,-41.467957l0,0z" id="path3415" stroke-miterlimit="4" stroke-width="4" stroke="#000000" fill-rule="evenodd" fill="#ffff00"/>
  <path d="m84.230087,109.224739c-15.098358,0.192757 -16.884705,4.052864 -20.832275,4.052864c-4.2108,0 -3.162506,2.103142 -3.162476,2.103142c0,0 37.89682,81.419014 31.93161,82.822578c-5.965271,1.403625 -1.397034,32.269348 -1.397034,32.269348l-0.706146,46.331528l14.73764,0.122803l0.736877,-45.993759c0,0 3.599304,1.1203 5.956482,-0.368469l0,46.408249l4.835785,-0.01532c0,0 -0.247864,-39.819016 -0.475922,-41.741318c0,0 -1.230316,-8.241699 2.717255,-8.504883c3.947601,-0.263184 3.95636,4.912537 3.254578,12.281372l0.214905,38.072311l8.38208,0.076721l0.353088,-43.322556c-1.579041,-1.929932 -1.934357,-14.568787 -1.934357,-14.568787c4.737152,-24.73822 -1.934296,-21.753418 -1.934296,-21.753418c1.579041,-13.860413 6.493774,-24.040771 6.493774,-24.040771c0,0 10.700165,-31.045593 15.612732,-44.028748c4.912537,-12.983223 10.526855,-12.643257 1.228119,-16.503113c-9.298737,-3.859863 -12.632294,2.287354 -23.334625,1.059265c-10.702332,-1.228149 -21.398102,-4.39283 -39.469269,-4.743713c-1.129486,-0.021912 -2.201965,-0.028198 -3.208527,-0.015327zm-2.11853,2.763313c0.362671,-0.00708 0.732605,-0.003784 1.105316,0c1.233734,0.012573 2.528107,0.097595 3.868622,0.245598c0,0 6.853668,9.134888 13.340668,41.403633c0,0 -7.66684,1.497742 -2.456268,5.219604c0,0 2.482361,1.734741 4.467346,1.734741l0.997864,34.4953l-7.691223,3.469482c0,0 -1.244263,-9.678467 -4.22171,-16.625916c-2.977448,-6.947388 -27.039948,-64.26886 -27.065094,-64.446533c0,0 6.411102,-5.276978 17.65448,-5.495911zm12.496307,0.690796c0.371948,-0.013794 0.770477,-0.009644 1.212799,0c1.010864,0.022087 2.211639,0.105766 3.638336,0.276367c11.413574,1.364624 29.41391,3.976074 29.41391,3.976074c0,0 -5.349426,11.902344 -7.706573,25.176819c-2.357147,13.274536 -2.840057,11.408875 -2.840057,11.160706c0,0 -12.531921,-1.107422 -16.625916,0.629456c0,0 -7.443878,-32.378365 -10.669464,-38.333313c0,0.000053 -2.002533,-2.67926 3.576965,-2.886108zm47.160492,1.489136c6.468536,-0.040352 10.055389,1.888245 10.055389,1.888245l-4.973969,13.893311c0,0 -13.028534,36.469727 -18.115051,47.759216c-5.086487,11.289551 -4.451996,20.602051 -4.451996,20.602051c0,0 -1.986542,-0.990417 -5.956451,-1.734741c-1.89093,0.090759 -1.120667,-2.609802 -1.120697,-2.609802l0.245636,-33.927307c12.282013,-4.962463 2.855438,-6.892944 2.855438,-6.892944c5.210541,-29.278328 10.91507,-37.335388 10.91507,-37.335388c4.07074,-1.201843 7.606384,-1.624329 10.546631,-1.642639zm-29.03009,46.853455l0.138153,31.732056c0,0 -3.25238,-0.782959 -5.971832,-0.168884c-0.000031,0 -1.043915,-28.606812 -0.890381,-31.50177l6.72406,-0.061401zm-4.283142,39.116211c3.975159,0.028442 8.706604,0.90686 13.89328,3.500183c0,0.000061 0.17984,3.074768 1.934326,3.77655c1.754486,0.701782 0.875061,14.645569 0.875061,14.645569c0,0 -7.460938,-2.109802 -8.075012,-3.77655c-0.614075,-1.666748 -2.973846,-7.535522 -7.184601,-9.026794c-4.210785,-1.491333 -7.191193,1.403564 -8.243866,8.596924c0,0 -2.732605,3.936646 -6.417023,2.533081c-3.684448,-1.403625 0.798279,-17.182983 0.798279,-17.270691c0,0 4.830566,-3.032593 12.419556,-2.978271zm1.68869,11.314209c1.351318,-0.156738 3.623535,2.340637 2.732605,4.728333c0,0.000061 -1.320251,7.800903 -6.539825,3.239258c-2.681366,-2.194275 -1.796173,-5.480591 -1.796173,-5.480591c0,0 3.989288,-0.032898 4.866516,-1.918945c0.164459,-0.353638 0.425018,-0.53186 0.736877,-0.568054z" id="path4541" stroke-miterlimit="4" stroke-width="4" stroke="#000000" fill-rule="evenodd" fill="#d3d7cf"/>
  <path d="m101.030899,14.528454c-49.768036,3.238068 -76.098511,51.305485 -76.098511,51.305485c0,0 -9.500015,18.270439 -10.485229,43.583557c9.065414,-13.305969 23.347794,-23.880707 45.717453,-26.512451c71.582932,-8.421509 68.071762,58.95282 110.179367,32.284668c12.271149,-7.771736 22.09314,-18.892395 29.8591,-30.734131c-7.356903,-24.911503 -20.233582,-37.611729 -20.233582,-37.611729c-0.643433,-0.642059 -1.214844,-1.352448 -1.704041,-2.118561c0,0 -3.854797,-6.447113 -15.873688,-14.231049c-11.959473,-7.745453 -31.278687,-15.885284 -61.36087,-15.96579z" id="path6583" stroke-miterlimit="4" stroke-width="4" fill-rule="evenodd" fill="#ffffff" opacity="0.8"/>
  <path d="m72.630203,287.374695c0.044098,2.484253 0.044067,5.17157 -0.122803,8.84259l-0.583374,-0.030701c0.490662,1.009827 0.896973,1.892151 0.967163,2.226013c0.125946,0.598816 0.265472,0.869873 0.260986,0.905762c1.338562,1.107178 2.714569,2.704956 3.546234,4.943237c1.179932,3.175537 0.576111,6.630127 -0.245605,8.550903c-0.474915,1.110046 -0.929535,1.911072 -1.366333,2.579102c0.710297,1.327759 1.28125,2.711487 1.458435,3.945435c0.200836,1.398621 0.214722,2.626953 0.122803,3.80719c15.39035,1.965454 28.459137,7.200317 38.179749,2.947571c13.902161,-6.082214 2.320038,-31.57251 30.519226,-30.166199c0.61615,-1.079224 1.418579,-2.145203 2.348846,-3.147095c-0.491852,-1.602051 -0.895844,-3.353088 -0.982513,-5.403809l-74.102814,0z" id="path6590" stroke-miterlimit="4" stroke-width="4" fill-rule="evenodd" fill="#d3d7cf" opacity="0.715134"/>
  <title>Layer 1</title>
 </g>
</svg>